# xmcd
#
# Track frame offsets:
#	150
#	11754
#	30097
#	48321
#	63624
#	78053
#	92970
#	106176
#	122637
#	147691
#
# Disc length: 2170 seconds
#
# Revision: 0
# Processed by: cddbd v1.5.2PL0 Copyright (c) Steve Scherf et al.
# Submitted via: dBpowerAMP V4.0
#
DISCID=7c08780a
DTITLE=Paleface - One Big Party
DYEAR=2010
DGENRE=Alt Folk
TTITLE0=You Will Get What You Want
TTITLE1=She's So
TTITLE2=One Big Party
TTITLE3=Rock N Roll
TTITLE4=Understand the Man
TTITLE5=Analyze It
TTITLE6=You Gotta Move On
TTITLE7=See You When the Sun Goes Down
TTITLE8=I Wanna Travel
TTITLE9=Kansas It's Not
EXTD=
EXTT0=
EXTT1=
EXTT2=
EXTT3=
EXTT4=
EXTT5=
EXTT6=
EXTT7=
EXTT8=
EXTT9=
PLAYORDER=
